<svg xmlns:xlink="http://www.w3.org/1999/xlink" xmlns="http://www.w3.org/2000/svg" width="35" height="25" viewBox="0 0 35 25" fill="none" class="h-5 w-5 md:h-8 md:w-8"><path d="M34.02 21.9395V3.93945C34.02 2.27945 32.68 0.939453 31.02 0.939453H3C1.34 0.939453 0 2.27945 0 3.93945V21.9395C0 23.5995 1.34 24.9395 3 24.9395H31.02C32.68 24.9395 34.02 23.5995 34.02 21.9395ZM31.4 3.71945C32.06 4.37945 31.7 5.05945 31.34 5.39945L23.22 12.8395L31.02 20.9595C31.26 21.2395 31.42 21.6795 31.14 21.9795C30.88 22.2995 30.28 22.2795 30.02 22.0795L21.28 14.6195L17 18.5195L12.74 14.6195L4 22.0795C3.74 22.2795 3.14 22.2995 2.88 21.9795C2.6 21.6795 2.76 21.2395 3 20.9595L10.8 12.8395L2.68 5.39945C2.32 5.05945 1.96 4.37945 2.62 3.71945C3.28 3.05945 3.96 3.37945 4.52 3.85945L17 13.9395L29.5 3.85945C30.06 3.37945 30.74 3.05945 31.4 3.71945Z" fill="#F62C73"></path></svg>