<svg xmlns:xlink="http://www.w3.org/1999/xlink" xmlns="http://www.w3.org/2000/svg" width="34" height="34" viewBox="0 0 34 34" fill="none" class="h-5 w-5 md:h-8 md:w-8 [&amp;>path]:fill-primary"><path d="M28.2625 29.75C28.6875 29.75 29.0417 29.6083 29.325 29.325C29.6083 29.0417 29.75 28.6875 29.75 28.2625V22.525C29.75 22.1944 29.6438 21.905 29.4313 21.6566C29.2188 21.4082 28.9472 21.2491 28.6167 21.1792L23.7292 20.1875C23.3986 20.1403 23.0619 20.17 22.7191 20.2767C22.3763 20.3835 22.0991 20.5426 21.8875 20.7542L18.5583 24.0833C16.7639 22.9972 15.1229 21.7104 13.6354 20.2229C12.1479 18.7354 10.9083 17.1417 9.91667 15.4417L13.3167 11.9708C13.5292 11.7583 13.6652 11.5161 13.7247 11.2441C13.7842 10.9721 13.7898 10.6713 13.7417 10.3417L12.8208 5.38333C12.7736 5.05278 12.6201 4.78125 12.3604 4.56875C12.1007 4.35625 11.8056 4.25 11.475 4.25H5.7375C5.3125 4.25 4.95833 4.39167 4.675 4.675C4.39167 4.95833 4.25 5.3125 4.25 5.7375C4.25 8.78333 4.92906 11.7527 6.28717 14.6455C7.64528 17.5383 9.43972 20.1001 11.6705 22.3309C13.9013 24.5617 16.4631 26.3561 19.3559 27.7142C22.2488 29.0724 25.2176 29.7509 28.2625 29.75Z" fill="#F62C73"></path></svg>